<?xml version="1.0" encoding="iso-8859-1"?>
<!-- Uploaded to: SVG Repo, www.svgrepo.com, Generator: SVG Repo Mixer Tools -->
<svg height="800px" width="800px" version="1.1" id="Layer_1" xmlns="http://www.w3.org/2000/svg" xmlns:xlink="http://www.w3.org/1999/xlink" 
	 viewBox="0 0 512 512" xml:space="preserve">
<path style="fill:#FFDC64;" d="M466.756,430.103H45.244c-10.122,0-18.327-8.205-18.327-18.327V26.917
	c0-10.122,8.205-18.327,18.327-18.327h421.512c10.122,0,18.327,8.205,18.327,18.327v384.859
	C485.083,421.898,476.878,430.103,466.756,430.103z"/>
<g>
	<path style="fill:#FFC850;" d="M256,256c-75.91,0-137.45,61.539-137.45,137.45c0,12.714,1.864,24.968,5.094,36.653h264.711
		c3.23-11.686,5.094-23.939,5.094-36.653C393.45,317.539,331.911,256,256,256z"/>
	<path style="fill:#FFC850;" d="M81.897,301.817V8.591H45.244c-10.122,0-18.327,8.205-18.327,18.327v384.859
		c0,10.122,8.205,18.327,18.327,18.327h421.512c10.121,0,18.327-8.206,18.327-18.327v-9.163H182.694
		C127.025,402.613,81.897,357.485,81.897,301.817z"/>
</g>
<polygon style="fill:#9B735A;" points="310.98,146.04 292.654,136.877 274.329,146.04 256.005,136.877 237.67,146.04 
	219.348,136.877 201.02,146.04 201.02,8.591 310.98,8.591 "/>
<path style="fill:#E1A546;" d="M182.694,402.613c-24.065,0-46.136-8.46-63.467-22.533c-0.425,4.402-0.676,8.855-0.676,13.369
	c0,12.714,1.864,24.968,5.094,36.653h264.711c2.448-8.853,4.099-18.033,4.763-27.49H182.694z"/>
<circle style="fill:#B4E66E;" cx="256" cy="393.45" r="109.96"/>
<path style="fill:#A0D755;" d="M310.98,481.417c-60.729,0-109.96-49.231-109.96-109.96c0-35.653,17.044-67.248,43.345-87.34
	c-55.256,5.814-98.325,52.534-98.325,109.332c0,60.729,49.231,109.96,109.96,109.96c25.077,0,48.115-8.489,66.615-22.62
	C318.789,481.193,314.911,481.417,310.98,481.417z"/>
<path d="M256,274.899c-65.369,0-118.55,53.182-118.55,118.55S190.631,512,256,512s118.55-53.182,118.55-118.55
	S321.369,274.899,256,274.899z M256,494.819c-55.895,0-101.369-45.474-101.369-101.369S200.105,292.081,256,292.081
	s101.369,45.474,101.369,101.369S311.895,494.819,256,494.819z"/>
<path d="M314.069,350.722l-76.396,76.396l-39.742-39.742c-3.355-3.355-8.794-3.355-12.148,0c-3.355,3.355-3.355,8.794,0,12.148
	l45.817,45.817c1.677,1.677,3.876,2.516,6.074,2.516c2.198,0,4.397-0.838,6.074-2.516l82.47-82.47c3.355-3.355,3.355-8.795,0-12.148
	C322.864,347.367,317.423,347.367,314.069,350.722z"/>
<path d="M466.756,0H45.244C30.402,0,18.327,12.075,18.327,26.917v384.859c0,14.842,12.075,26.917,26.917,26.917h64.143
	c4.744,0,8.591-3.846,8.591-8.591s-3.846-8.591-8.591-8.591H45.244c-5.369,0-9.736-4.367-9.736-9.736V26.917
	c0-5.369,4.367-9.736,9.736-9.736H192.43V146.04c0,2.977,1.542,5.742,4.074,7.308c2.531,1.566,5.694,1.708,8.358,0.376l14.485-7.242
	l14.481,7.242c2.418,1.208,5.265,1.211,7.683,0l14.492-7.244l14.484,7.242c2.419,1.21,5.265,1.21,7.685,0l14.483-7.242l14.484,7.242
	c1.213,0.606,2.529,0.907,3.842,0.907c1.572,0,3.137-0.431,4.516-1.283c2.533-1.566,4.074-4.33,4.074-7.308V17.181h147.186
	c5.369,0,9.736,4.367,9.736,9.736v384.859c0,5.369-4.367,9.736-9.736,9.736h-64.148c-4.744,0-8.591,3.846-8.591,8.591
	s3.846,8.591,8.591,8.591h64.148c14.842,0,26.917-12.075,26.917-26.917V26.917C493.673,12.075,481.598,0,466.756,0z M302.389,132.14
	l-5.893-2.946c-2.419-1.21-5.265-1.21-7.685,0l-14.483,7.242l-14.484-7.242c-2.419-1.208-5.265-1.211-7.683,0l-14.492,7.242
	l-14.483-7.242c-1.21-0.605-2.526-0.907-3.842-0.907c-1.316,0-2.632,0.302-3.842,0.907l-5.893,2.947V17.181h92.779V132.14z"/>
<path d="M152.114,121.64c-3.355-3.355-8.794-3.355-12.148,0l-12.825,12.825V81.897c0-4.744-3.846-8.591-8.591-8.591
	c-4.744,0-8.591,3.846-8.591,8.591v52.568L97.135,121.64c-3.355-3.355-8.794-3.355-12.148,0c-3.355,3.355-3.355,8.794,0,12.148
	l27.49,27.49c1.677,1.677,3.876,2.516,6.074,2.516c2.198,0,4.397-0.838,6.074-2.516l27.49-27.49
	C155.469,130.434,155.469,124.993,152.114,121.64z"/>
<path d="M146.04,53.834c4.744,0,8.591-3.846,8.591-8.591s-3.846-8.591-8.591-8.591H91.06c-4.744,0-8.591,3.846-8.591,8.591
	s3.846,8.591,8.591,8.591H146.04z"/>
</svg>