<?xml version="1.0" encoding="iso-8859-1"?>
<!-- Uploaded to: SVG Repo, www.svgrepo.com, Generator: SVG Repo Mixer Tools -->
<svg height="800px" width="800px" version="1.1" id="Layer_1" xmlns="http://www.w3.org/2000/svg" xmlns:xlink="http://www.w3.org/1999/xlink" 
	 viewBox="0 0 512 512" xml:space="preserve">
<path style="fill:#FFD652;" d="M504.657,187.015c1.837-2.449,2.133-5.727,0.763-8.466c-1.37-2.739-4.168-4.469-7.231-4.469h-90.543
	c-2.544,0-4.941,1.198-6.467,3.234l-63.865,85.154h112.371L504.657,187.015z"/>
<path style="fill:#F7EDBC;" d="M7.343,187.015c-1.837-2.449-2.133-5.727-0.763-8.466c1.37-2.739,4.168-4.469,7.231-4.469h90.543
	c2.544,0,4.941,1.198,6.467,3.234l63.865,85.154H62.316L7.343,187.015z"/>
<path style="fill:#FFD652;" d="M449.684,262.467H62.181v241.448c0,4.465,3.62,8.084,8.084,8.084h371.335
	c4.465,0,8.084-3.62,8.084-8.084V262.467z"/>
<path style="fill:#F7EDBC;" d="M449.684,262.467H338.122v241.448c0,4.465,3.62,8.084,8.084,8.084h95.394
	c4.465,0,8.084-3.62,8.084-8.084V262.467z"/>
<g>
	<path style="fill:#FB9D46;" d="M249.734,309.895v-47.427h-86.232v47.427c0,4.465,3.62,8.084,8.084,8.084h70.063
		C246.116,317.979,249.734,314.359,249.734,309.895z"/>
	<path style="fill:#FB9D46;" d="M196.917,490.981c-8.638,0-16.759-3.364-22.866-9.473l-51.738-51.738
		c-6.107-6.107-9.471-14.227-9.471-22.865c0-8.637,3.364-16.758,9.471-22.865c6.106-6.107,14.227-9.471,22.865-9.471
		c8.638,0,16.759,3.364,22.866,9.473l28.872,28.872l65.522-65.522c6.106-6.108,14.227-9.471,22.865-9.471
		c8.638,0,16.759,3.364,22.866,9.473c6.106,6.106,9.47,14.227,9.47,22.864c0,8.638-3.364,16.758-9.471,22.865l-88.387,88.387
		C213.676,487.617,205.556,490.981,196.917,490.981z"/>
</g>
<path style="fill:#5AC779;" d="M196.918,474.813c-4.138,0-8.276-1.578-11.432-4.736l-51.739-51.739
	c-6.314-6.314-6.314-16.551,0-22.865c6.313-6.314,16.551-6.314,22.865,0l40.307,40.306l76.955-76.954
	c6.313-6.314,16.551-6.314,22.865,0c6.314,6.314,6.314,16.551,0,22.865l-88.387,88.387
	C205.193,473.235,201.056,474.813,196.918,474.813z"/>
<path style="fill:#FF7452;" d="M356.405,121.49c-1.229-3.067-4.199-5.077-7.504-5.077h-35.032V8.084
	c0-4.465-3.618-8.084-8.084-8.084H202.307c-4.466,0-8.084,3.62-8.084,8.084v108.328h-35.032c-7.149,0-10.752,8.996-5.582,13.932
	l94.855,90.543c3.721,2.981,7.443,2.981,11.164,0l94.855-90.543C356.873,128.064,357.634,124.557,356.405,121.49
	C355.177,118.423,357.634,124.557,356.405,121.49C355.177,118.423,357.634,124.557,356.405,121.49z"/>
<path style="fill:#E24642;" d="M230.332,0h-28.025c-4.465,0-8.084,3.62-8.084,8.084v108.328h-34.802
	c-7.056,0-11.062,8.919-5.811,13.932l94.855,90.543c3.721,2.981,7.443,2.981,11.164,0l17.957-17.141l-44.991-46.721
	c-1.451-1.507-2.261-3.516-2.261-5.607L230.332,0L230.332,0z"/>
</svg>