<?xml version="1.0" encoding="iso-8859-1"?>
<!-- Uploaded to: SVG Repo, www.svgrepo.com, Generator: SVG Repo Mixer Tools -->
<svg version="1.1" id="Layer_1" xmlns="http://www.w3.org/2000/svg" xmlns:xlink="http://www.w3.org/1999/xlink" 
	 viewBox="0 0 297 297" xml:space="preserve">
<g>
	<g>
		<g>
			<g>
				<g>
					<g>
						<circle style="fill:#5E4534;" cx="148.5" cy="148.5" r="148.5"/>
					</g>
				</g>
			</g>
		</g>
	</g>
	<path style="fill:#51392A;" d="M296.653,138.425l-63.768-63.768L64.696,222.929l73.723,73.723
		c3.333,0.224,6.692,0.348,10.081,0.348c82.014,0,148.5-66.486,148.5-148.5C297,145.113,296.876,141.756,296.653,138.425z"/>
	<g>
		<path style="fill:#FFCF6D;" d="M71.136,225.397h154.729c5.322,0,9.636-4.314,9.636-9.636V81.239c0-5.322-4.314-9.636-9.636-9.636
			H71.136c-5.322,0-9.636,4.314-9.636,9.636v134.522C61.5,221.083,65.814,225.397,71.136,225.397z"/>
	</g>
	<g>
		<path style="fill:#F9B65F;" d="M225.864,71.603h-77.697v153.794h77.697c5.322,0,9.636-4.314,9.636-9.636V81.239
			C235.5,75.917,231.186,71.603,225.864,71.603z"/>
	</g>
	<g>
		<rect x="132" y="71.603" style="fill:#B85627;" width="33" height="66"/>
	</g>
	<g>
		<rect x="148.167" y="71.603" style="fill:#A54520;" width="16.833" height="66"/>
	</g>
	<g>
		<path style="fill:#D35400;" d="M149.68,241.231l39.791-68.92c2.165-3.749,7.577-3.749,9.741,0l39.791,68.92
			c2.165,3.749-0.541,8.436-4.871,8.436H154.55C150.221,249.667,147.515,244.98,149.68,241.231z"/>
	</g>
	<g>
		<path style="fill:#FFFFFF;" d="M194.341,223.75c-2.209,0-4-1.791-4-4v-27c0-2.209,1.791-4,4-4s4,1.791,4,4v27
			C198.341,221.959,196.55,223.75,194.341,223.75z"/>
	</g>
	<g>
		<path style="fill:#FFFFFF;" d="M194.347,238c-1.06,0-2.09-0.431-2.83-1.17c-0.75-0.75-1.18-1.78-1.18-2.83s0.43-2.08,1.18-2.83
			c0.74-0.74,1.771-1.17,2.83-1.17c1.05,0,2.08,0.43,2.82,1.17c0.75,0.75,1.17,1.78,1.17,2.83s-0.42,2.08-1.17,2.83
			C196.427,237.57,195.397,238,194.347,238z"/>
	</g>
</g>
</svg>