<?xml version="1.0" ?>
<!DOCTYPE svg  PUBLIC '-//W3C//DTD SVG 1.1//EN'  'http://www.w3.org/Graphics/SVG/1.1/DTD/svg11.dtd'>
<!-- Uploaded to: SVG Repo, www.svgrepo.com, Generator: SVG Repo Mixer Tools -->
<svg width="800px" height="800px" viewBox="0 0 512 512" version="1.1" xml:space="preserve" xmlns="http://www.w3.org/2000/svg" xmlns:xlink="http://www.w3.org/1999/xlink">
<g id="email_x2C__mail__x2C__letter__x2C__internet__x2C__envelope__x2C__chat__x2C___add__x2C_">
<g>
<path d="M396.144,265.365c-43.825,0-79.363,35.555-79.363,79.363    c0,43.898,35.538,79.362,79.363,79.362c43.896,0,79.361-35.464,79.361-79.362C475.505,300.92,440.04,265.365,396.144,265.365    L396.144,265.365z" style="fill-rule:evenodd;clip-rule:evenodd;fill:#F36360;"/>
<path d="M396.144,272.098c-20.093,0-38.247,8.167-51.311,21.23c-13.169,13.154-21.337,31.323-21.337,51.4    s8.168,38.245,21.337,51.415c13.063,13.152,31.218,21.318,51.311,21.318c20.062,0,38.23-8.166,51.399-21.318    c13.168-13.17,21.334-31.338,21.334-51.415s-8.166-38.246-21.334-51.4C434.374,280.265,416.205,272.098,396.144,272.098    L396.144,272.098z M335.304,283.904c15.58-15.55,37.106-25.167,60.84-25.167c23.819,0,45.332,9.617,60.897,25.167    c15.564,15.565,25.182,37.092,25.182,60.824c0,23.836-9.617,45.348-25.182,60.913c-15.565,15.564-37.078,25.182-60.897,25.182    c-23.733,0-45.26-9.617-60.84-25.182c-15.551-15.565-25.152-37.077-25.152-60.913C310.151,320.996,319.753,299.47,335.304,283.904    L335.304,283.904z" style="fill:#4A374F;"/>
<path d="M402.859,386.526c0,3.742-2.989,6.717-6.716,6.717c-3.67,0-6.629-2.975-6.629-6.717V303.02    c0-3.729,2.959-6.717,6.629-6.717c3.727,0,6.716,2.988,6.716,6.717V386.526z" style="fill:#4A374F;"/>
<path d="M354.434,351.46c-3.742,0-6.73-2.988-6.73-6.731c0-3.655,2.988-6.629,6.73-6.629h83.49    c3.759,0,6.733,2.974,6.733,6.629c0,3.743-2.975,6.731-6.733,6.731H354.434z" style="fill:#4A374F;"/>
<path d="M438.413,254.12V123.167c0-9.706-3.95-18.546-10.371-24.887    L296.303,230.004l-25.648,25.656c-9.226,9.128-21.238,13.834-33.245,13.834c-12.014,0-24.021-4.706-33.149-13.834l-25.655-25.656    l-54.958,54.581l-76.766,76.284c6.34,6.437,15.276,10.388,24.982,10.388h227.902c-2.308-8.464-3.551-17.312-3.551-26.528    c0-27.564,11.142-52.554,29.207-70.708c18.153-18.065,43.144-29.22,70.723-29.22C411.322,244.8,425.526,248.069,438.413,254.12    L438.413,254.12z" style="fill-rule:evenodd;clip-rule:evenodd;fill:#FBCD64;"/>
<path d="M123.647,284.585l54.958-54.581L46.881,98.28    c-6.436,6.34-10.379,15.181-10.379,24.887v212.817c0,9.707,3.943,18.554,10.379,24.976L123.647,284.585z" style="fill-rule:evenodd;clip-rule:evenodd;fill:#FBCD64;"/>
<path d="M51.586,102.993c-2.685,2.686-4.801,5.763-6.244,9.314c-1.346,3.269-2.115,7.021-2.115,10.86    v212.817c0,3.847,0.769,7.591,2.115,10.86c0.578,1.45,1.25,2.782,2.116,4.128L173.9,225.203l9.417,9.505L46.785,370.383    l-4.712-4.719c-3.84-3.832-6.917-8.551-9.122-13.642c-2.02-4.986-3.173-10.461-3.173-16.039V123.167    c0-5.571,1.154-11.052,3.173-16.046c2.205-5.089,5.282-9.705,9.122-13.641L51.586,102.993z" style="fill:#4A374F;"/>
<path d="M178.605,230.004l25.655,25.656    c9.128,9.128,21.135,13.834,33.149,13.834c12.006,0,24.019-4.706,33.245-13.834l25.648-25.656L428.042,98.28    c-6.347-6.339-15.284-10.378-24.99-10.378H71.863c-9.706,0-18.642,4.039-24.982,10.378L178.605,230.004z" style="fill-rule:evenodd;clip-rule:evenodd;fill:#FBCD64;"/>
<path d="M301.881,377.975H71.863c-5.674,0-11.148-1.155-16.045-3.168    c-5.193-2.218-9.802-5.295-13.649-9.143l9.417-9.499c2.596,2.692,5.762,4.794,9.321,6.244c3.366,1.347,7.013,2.219,10.956,2.219    h226.274C299.084,369.126,300.342,373.653,301.881,377.975L301.881,377.975z" style="fill:#4A374F;"/>
<path d="M301.007,225.299l37.478,37.759l-0.104,0.088l-0.088,0.104l-0.09,0.103l-0.207,0.09l-0.177,0.088    l-0.207,0.104l-0.09,0.193l-0.192,0.088l0,0l-0.192,0.104l-0.192,0.104l-0.103,0.177l-0.178,0.104l-0.207,0.104l-0.09,0.088    l-0.088,0.089l-0.104,0.104l-0.192,0.104l-0.192,0.177l-0.192,0.104l-0.089,0.104l-0.104,0.088l-0.104,0.089l-0.178,0.104    l-0.191,0.104l-0.104,0.176l-0.858,0.594l-0.192,0.177l-0.104,0.104l-0.178,0.104l0,0l-0.207,0.176l-0.088,0.104l-0.193,0.193    l-0.191,0.088l-0.192,0.104l-0.104,0.104v0.089l-0.179,0.088l-0.207,0.208l-0.088,0.089l-0.191,0.089l-0.667,0.592l-0.104,0.088    l-0.192,0.193l-0.192,0.104l0,0l-0.104,0.178l-0.178,0.103l-0.104,0.192l-0.191,0.09l-0.193,0.103l-0.104,0.192l0,0l-0.178,0.089    l-0.207,0.193l-0.088,0.103l-0.192,0.179l-0.104,0.104l-0.088,0.104l-0.09,0.088l-0.207,0.089l-0.088,0.207l-0.192,0.089    l-0.193,0.192l-0.088,0.089l-36.516-36.797L301.007,225.299z M431.77,251.34V123.167c-0.088-3.839-0.857-7.591-2.188-10.86    c-1.45-3.551-3.566-6.628-6.26-9.314l9.515-9.514c3.846,3.936,6.923,8.552,9.024,13.641c2.131,4.994,3.284,10.476,3.284,16.046    v134.416l-0.207-0.191l-0.178-0.103l-0.295-0.091l-0.191-0.087l-0.192-0.104l-0.193-0.104l-0.104-0.089h-0.089l-0.192-0.192    l-0.192-0.104l-0.192-0.089l-0.192-0.088l-0.192-0.104l0,0l-0.281-0.104l-0.207-0.088l-0.178-0.09l-0.207-0.208l-0.178-0.088l0,0    l-0.207-0.089l-0.177-0.104l-0.207-0.104l-0.281-0.088l-0.193-0.088l0,0l-0.191-0.104l-0.193-0.104l-0.192-0.089l-0.192-0.089    l-0.192-0.104l-0.104-0.104h-0.177l-0.207-0.089l-0.178-0.088l-0.207-0.104l-0.178-0.09l-0.192-0.104l0,0l-0.297-0.088    l-0.192-0.089l-0.191-0.104l-0.192-0.104l-0.178-0.089l0,0l-0.873-0.385l-0.192-0.088l-0.088-0.104h-0.207l-0.179-0.104    l-0.207-0.09l-0.178-0.088l-0.207-0.104l-0.088-0.104h-0.192l-0.191-0.09l-0.192-0.088l-0.193-0.104l-0.192-0.104h-0.192    l-0.089-0.089l-0.207-0.089h-0.178l-0.207-0.104l-0.28-0.104l-0.192-0.089l0,0l-0.192-0.089l-0.192-0.104l-0.297-0.104    l-0.178-0.088H431.77z" style="fill:#4A374F;"/>
<path d="M428.042,98.28L270.654,255.66    c-9.226,9.128-21.238,13.834-33.245,13.834c-12.014,0-24.021-4.706-33.149-13.834L46.881,98.28    c6.34-6.436,15.276-10.378,24.886-10.378h331.285C412.758,87.901,421.695,91.844,428.042,98.28L428.042,98.28z" style="fill-rule:evenodd;clip-rule:evenodd;fill:#FBCD64;"/>
<path d="M432.746,102.993L275.353,260.365c-5.083,5.193-11.037,9.039-17.385,11.732    c-6.628,2.781-13.545,4.128-20.558,4.128c-6.917,0-13.93-1.347-20.47-4.128c-6.34-2.693-12.295-6.539-17.392-11.732L37.367,98.28    l4.802-4.801c3.847-3.847,8.456-6.917,13.649-9.032c4.897-2.116,10.371-3.27,16.045-3.27h331.189    c5.668,0,11.141,1.154,16.053,3.27c5.179,2.115,9.795,5.186,13.642,9.032l4.794,4.801L432.746,102.993z M265.942,250.955    L418.04,98.761c-1.242-0.77-2.604-1.443-4.025-2.019c-3.372-1.339-7.026-2.109-10.963-2.109H71.863    c-3.943,0-7.59,0.77-10.956,2.109c-1.443,0.576-2.789,1.25-4.031,2.019l152.089,152.194c3.943,3.846,8.359,6.82,13.168,8.848    c4.801,2.012,10.09,3.063,15.276,3.063c5.282,0,10.467-1.051,15.372-3.063C257.583,257.775,262.007,254.801,265.942,250.955    L265.942,250.955z" style="fill:#4A374F;"/>
</g>
</g>
<g id="Layer_1"/>
</svg>