<?xml version="1.0" encoding="iso-8859-1"?>
<!-- Uploaded to: SVG Repo, www.svgrepo.com, Generator: SVG Repo Mixer Tools -->
<svg height="800px" width="800px" version="1.1" id="Layer_1" xmlns="http://www.w3.org/2000/svg" xmlns:xlink="http://www.w3.org/1999/xlink" 
	 viewBox="0 0 512 512" xml:space="preserve">
<path style="fill:#FFDC64;" d="M474.074,436.148H37.926c-10.473,0-18.963-8.489-18.963-18.963V18.963
	C18.963,8.489,27.452,0,37.926,0h436.148c10.474,0,18.963,8.489,18.963,18.963v398.222
	C493.037,427.659,484.548,436.148,474.074,436.148z"/>
<g>
	<path style="fill:#FFC850;" d="M75.852,312.889V0H37.926C27.452,0,18.963,8.489,18.963,18.963v398.222
		c0,10.474,8.489,18.963,18.963,18.963h436.148c10.472,0,18.963-8.491,18.963-18.963H180.148
		C122.547,417.185,75.852,370.49,75.852,312.889z"/>
	<path style="fill:#FFC850;" d="M385.615,426.667c2.023-9.164,3.125-18.671,3.125-28.444c0-73.311-59.43-132.741-132.741-132.741
		s-132.741,59.43-132.741,132.741c0,9.773,1.103,19.281,3.125,28.444H385.615z"/>
</g>
<path style="fill:#E1A546;" d="M123.364,400.302c0.193,12.441,2.074,24.461,5.465,35.846H383.17
	c1.828-6.138,3.134-12.487,4.062-18.963H180.148C159.188,417.185,139.712,410.944,123.364,400.302z"/>
<polygon style="fill:#9B735A;" points="312.889,142.222 293.927,132.741 274.965,142.222 256.005,132.741 237.033,142.222 
	218.075,132.741 199.111,142.222 199.111,0 312.889,0 "/>
<circle style="fill:#B4E66E;" cx="256" cy="398.222" r="113.778"/>
<path style="fill:#A0D755;" d="M312.889,489.244c-62.837,0-113.778-50.94-113.778-113.778c0-36.891,17.636-69.583,44.85-90.373
	c-57.175,6.016-101.739,54.359-101.739,113.128C142.222,461.06,193.163,512,256,512c25.947,0,49.786-8.783,68.928-23.405
	C320.969,489.012,316.956,489.244,312.889,489.244z"/>
<path style="fill:#FFFFFF;" d="M237.037,457.481c-3.038,0-6.065-1.158-8.379-3.473l-47.407-47.407
	c-4.629-4.629-4.629-12.129,0-16.76c4.629-4.63,12.129-4.629,16.76,0l39.028,39.028l76.954-76.954c4.629-4.629,12.129-4.629,16.76,0
	c4.63,4.629,4.629,12.129,0,16.76l-85.333,85.333C243.102,456.324,240.075,457.481,237.037,457.481z"/>
<g>
	<path style="fill:#E1A546;" d="M135.519,116.556l-12.26,12.26V75.852c0-5.241-4.241-9.481-9.481-9.481s-9.481,4.241-9.481,9.481
		v52.964l-12.26-12.26c-3.704-3.704-9.704-3.704-13.408,0s-3.704,9.704,0,13.408l28.444,28.444c1.852,1.851,4.279,2.777,6.705,2.777
		s4.852-0.926,6.703-2.778l28.444-28.444c3.704-3.704,3.704-9.704,0-13.408S139.223,112.852,135.519,116.556z"/>
	<path style="fill:#E1A546;" d="M85.333,47.407h56.889c5.241,0,9.481-4.241,9.481-9.481s-4.241-9.481-9.481-9.481H85.333
		c-5.241,0-9.481,4.241-9.481,9.481S80.092,47.407,85.333,47.407z"/>
</g>
</svg>