<!DOCTYPE svg PUBLIC "-//W3C//DTD SVG 1.1//EN" "http://www.w3.org/Graphics/SVG/1.1/DTD/svg11.dtd">
<!-- Uploaded to: SVG Repo, www.svgrepo.com, Transformed by: SVG Repo Mixer Tools -->
<svg height="256px" width="256px" version="1.1" id="Layer_1" xmlns="http://www.w3.org/2000/svg" xmlns:xlink="http://www.w3.org/1999/xlink" viewBox="0 0 512 512" xml:space="preserve" fill="#000000">
<g id="SVGRepo_bgCarrier" stroke-width="0"/>
<g id="SVGRepo_tracerCarrier" stroke-linecap="round" stroke-linejoin="round"/>
<g id="SVGRepo_iconCarrier"> <path style="fill:#d13f00;" d="M199.736,0v512c0,0,185.67-198.641,185.67-326.331C385.407,83.292,302.115,0,199.736,0z"/> <path style="fill:#ff4d00;" d="M199.736,0C97.358,0,14.066,83.292,14.066,185.669C14.066,313.359,199.736,512,199.736,512 s151.912-198.641,151.912-326.331C351.648,83.292,283.501,0,199.736,0z"/> <path style="fill:#ABECEC;" d="M199.736,67.516v236.308c65.255,0,118.154-52.899,118.154-118.154S264.991,67.516,199.736,67.516z"/> <path style="fill:#FFFFFF;" d="M284.132,185.67c0-65.255-37.786-118.154-84.396-118.154c-65.255,0-118.154,52.899-118.154,118.154 s52.899,118.154,118.154,118.154C246.346,303.824,284.132,250.925,284.132,185.67z"/> <g> <circle style="fill:#a83200;" cx="199.736" cy="185.67" r="8.44"/> <circle style="fill:#a83200;" cx="239.121" cy="185.67" r="8.44"/> <circle style="fill:#a83200;" cx="160.352" cy="185.67" r="8.44"/> <path style="fill:#a83200;" d="M385.407,286.945V512c62.149,0,112.527-50.379,112.527-112.527S447.556,286.945,385.407,286.945z"/> </g> <path style="fill:#d13f00;" d="M385.407,286.945c43.503,0,78.769,50.379,78.769,112.527S428.91,512,385.407,512 c-62.149,0-112.527-50.379-112.527-112.527S323.258,286.945,385.407,286.945z"/> <path style="fill:#FFFFFF;" d="M437.126,427.322l-27.849-27.849l27.849-27.849c6.592-6.592,6.592-17.279,0-23.87 s-17.279-6.592-23.87,0l-27.849,27.849l-27.849-27.849c-6.592-6.592-17.279-6.592-23.87,0s-6.592,17.279,0,23.87l27.849,27.849 l-27.849,27.849c-6.592,6.592-6.592,17.279,0,23.87c6.592,6.592,17.279,6.592,23.87,0l27.849-27.849l27.849,27.849 c6.592,6.592,17.279,6.592,23.87,0C443.718,444.601,443.718,433.914,437.126,427.322z"/> </g>
</svg>