<?xml version="1.0" ?>
<!-- Uploaded to: SVG Repo, www.svgrepo.com, Generator: SVG Repo Mixer Tools -->
<svg width="800px" height="800px" viewBox="0 0 50 50" id="Message_And_Communication_Icons" version="1.1" xml:space="preserve" xmlns="http://www.w3.org/2000/svg" xmlns:xlink="http://www.w3.org/1999/xlink">
<g>
<g>
<g>
<g>
<path d="M23.7,10.6c1.3,1.4,2,3.2,2,5.2c0,4.2-3.5,7.5-7.6,7.5c-0.9,0-1.7-0.2-2.5-0.5      c1.4,1.5,3.3,2.4,5.5,2.5c4.2,0,7.6-3.3,7.6-7.5C28.8,14.5,26.7,11.7,23.7,10.6z" style="fill:#4DE0F9;"/>
</g>
</g>
<g>
<g>
<path d="M20.2,24.8C20.1,24.8,20.1,24.8,20.2,24.8c-4.6-0.1-8.2-3.7-8.2-8.2c0-2.2,0.9-4.2,2.5-5.7      s3.6-2.3,5.8-2.3c2.2,0,4.2,0.9,5.7,2.5s2.3,3.6,2.3,5.8C28.3,21.2,24.6,24.8,20.2,24.8z M20.2,9.7c-3.8,0-6.9,3.1-7,6.9      c0,3.8,3,7,6.9,7c0,0,0.1,0,0.1,0c3.8,0,6.9-3.1,7-6.9c0-1.9-0.7-3.6-2-4.9C23.8,10.5,22.1,9.8,20.2,9.7      C20.2,9.7,20.2,9.7,20.2,9.7z" style="fill:#0D5FC3;"/>
</g>
</g>
<g>
<g>
<rect height="2" style="fill:#4DE0F9;" width="4.4" x="9.9" y="38.8"/>
</g>
</g>
<g>
<g>
<path d="M13.7,40.4H9.4v-3.9c0-5.9,4.8-10.8,10.8-10.8c1.5,0,3,0.3,4.3,0.9L24,27.7      c-1.2-0.5-2.5-0.8-3.9-0.8c-5.3,0-9.6,4.3-9.6,9.6v2.7h3.2V40.4z" style="fill:#0D5FC3;"/>
</g>
</g>
</g>
<g>
<g>
<g>
<g>
<rect height="2.1" style="fill:#4DE0F9;" width="9" x="32.6" y="38.5"/>
</g>
</g>
<g>
<g>
<polygon points="39.2,31.9 41.6,30.3 41.6,40.7 39.2,40.7      " style="fill:#4DE0F9;"/>
</g>
</g>
<g>
<g>
<path d="M41.3,40.4H23.8V28.8h17.5V40.4z M25,39.2h15.1V30H25V39.2z" style="fill:#0D5FC3;"/>
</g>
</g>
<g>
<g>
<polygon points="32.6,35.3 24.1,29.9 24.8,28.9 32.6,33.9 40.4,28.9 41,29.9      " style="fill:#0D5FC3;"/>
</g>
</g>
</g>
<g>
<g>
<rect height="1.2" style="fill:#0D5FC3;" width="2.1" x="22.3" y="34.5"/>
</g>
</g>
<g>
<g>
<rect height="1.2" style="fill:#0D5FC3;" width="5.3" x="19.1" y="36.8"/>
</g>
</g>
<g>
<g>
<rect height="1.2" style="fill:#0D5FC3;" width="8.5" x="15.9" y="39.2"/>
</g>
</g>
<g>
<g>
<rect height="1.2" style="fill:#0D5FC3;" width="1.4" x="19.1" y="31.7"/>
</g>
</g>
</g>
</g>
</svg>