<?xml version="1.0" encoding="iso-8859-1"?>
<!-- Uploaded to: SVG Repo, www.svgrepo.com, Generator: SVG Repo Mixer Tools -->
<svg height="800px" width="800px" version="1.1" id="Layer_1" xmlns="http://www.w3.org/2000/svg" xmlns:xlink="http://www.w3.org/1999/xlink" 
	 viewBox="0 0 512 512" xml:space="preserve">
<path style="fill:#D0E8FF;" d="M17.655,436.966h476.69V75.034H17.655V436.966z M387.181,349.539c-3.448-3.448-3.448-9.035,0-12.483
	s9.035-3.448,12.483,0l14.306,14.306l14.306-14.306c3.448-3.448,9.035-3.448,12.483,0c3.448,3.448,3.448,9.035,0,12.483
	l-14.306,14.306l14.306,14.306c3.448,3.448,3.448,9.035,0,12.483c-1.724,1.724-3.983,2.586-6.241,2.586s-4.517-0.862-6.241-2.586
	l-14.306-14.306l-14.306,14.306c-1.724,1.724-3.983,2.586-6.241,2.586c-2.259,0-4.517-0.862-6.241-2.586
	c-3.448-3.448-3.448-9.035,0-12.483l14.306-14.306L387.181,349.539z M171.224,241.263c18.888,0,26.215-10.483,38.586-30.573
	c15.362-24.957,34.483-56.022,92.715-65.259c49.517-7.866,69.052,8.595,76.724,23.772c14.078,27.845-3.009,69.664-27.664,94.004
	c-15.931,15.737-35.526,23.293-52.81,29.957c-26.345,10.159-47.164,18.185-54.371,49.34c-1.897,8.172,0.603,11.776,2.655,13.776
	c16.241,15.832,81.017,6.556,118.043-3.017c4.715-1.198,9.534,1.616,10.75,6.336c1.224,4.724-1.612,9.539-6.336,10.759
	c-6.862,1.776-48.06,12.009-84.457,12.009c-20.75,0-39.94-3.328-50.328-13.448c-5.422-5.289-11.129-14.858-7.535-30.396
	c9.328-40.276,37.741-51.233,65.224-61.828c16.448-6.34,33.448-12.897,46.759-26.047c19.802-19.547,34.293-53.737,24.31-73.474
	c-9.095-18.004-36.655-17.728-58.207-14.302c-50.207,7.966-66.267,34.056-80.44,57.073c-11.793,19.159-23.991,38.974-53.621,38.974
	c-50.129,0-69.897-45.599-73.345-69.711c-0.69-4.828,2.664-9.297,7.491-9.987c4.836-0.729,9.302,2.664,9.991,7.487
	C115.69,188.918,123.966,241.263,171.224,241.263z M69.388,128.849c-3.448-3.448-3.448-9.035,0-12.483
	c3.448-3.448,9.035-3.448,12.483,0l14.306,14.306l14.306-14.306c3.448-3.448,9.035-3.448,12.483,0c3.448,3.448,3.448,9.035,0,12.483
	l-14.306,14.306l14.306,14.306c3.448,3.448,3.448,9.035,0,12.483c-1.724,1.724-3.983,2.586-6.241,2.586s-4.517-0.862-6.241-2.586
	l-14.306-14.306l-14.306,14.306c-1.724,1.724-3.983,2.586-6.241,2.586s-4.517-0.862-6.241-2.586c-3.448-3.448-3.448-9.035,0-12.483
	l14.306-14.306L69.388,128.849z"/>
<g>
	<path style="fill:#1C71DA;" d="M503.172,57.379H8.828C3.948,57.379,0,61.332,0,66.207v379.586c0,4.875,3.948,8.828,8.828,8.828
		h494.345c4.879,0,8.828-3.953,8.828-8.828V66.207C512,61.332,508.052,57.379,503.172,57.379z M494.345,436.966H17.655V75.034
		h476.69V436.966z"/>
	<path style="fill:#1C71DA;" d="M69.388,169.944c1.724,1.724,3.983,2.586,6.241,2.586s4.517-0.862,6.241-2.586l14.306-14.306
		l14.306,14.306c1.724,1.724,3.983,2.586,6.241,2.586s4.517-0.862,6.241-2.586c3.448-3.448,3.448-9.035,0-12.483l-14.306-14.306
		l14.306-14.306c3.448-3.448,3.448-9.035,0-12.483s-9.035-3.448-12.483,0l-14.306,14.306l-14.306-14.306
		c-3.448-3.448-9.035-3.448-12.483,0c-3.448,3.448-3.448,9.035,0,12.483l14.306,14.306l-14.306,14.306
		C65.94,160.909,65.94,166.496,69.388,169.944z"/>
	<path style="fill:#1C71DA;" d="M387.181,390.634c1.724,1.724,3.983,2.586,6.241,2.586c2.259,0,4.517-0.862,6.241-2.586
		l14.306-14.306l14.306,14.306c1.724,1.724,3.983,2.586,6.241,2.586s4.517-0.862,6.241-2.586c3.448-3.448,3.448-9.035,0-12.483
		l-14.306-14.306l14.306-14.306c3.448-3.448,3.448-9.035,0-12.483s-9.035-3.448-12.483,0l-14.306,14.306l-14.306-14.306
		c-3.448-3.448-9.035-3.448-12.483,0c-3.448,3.448-3.448,9.035,0,12.483l14.306,14.306l-14.306,14.306
		C383.733,381.599,383.733,387.185,387.181,390.634z"/>
	<path style="fill:#1C71DA;" d="M105.371,179.22c-4.828,0.69-8.181,5.16-7.491,9.987c3.448,24.112,23.215,69.711,73.345,69.711
		c29.629,0,41.828-19.815,53.621-38.974c14.172-23.017,30.233-49.108,80.44-57.073c21.552-3.427,49.112-3.703,58.207,14.302
		c9.983,19.737-4.509,53.927-24.31,73.474c-13.31,13.151-30.31,19.707-46.759,26.047c-27.483,10.595-55.896,21.552-65.224,61.828
		c-3.595,15.539,2.112,25.108,7.535,30.396c10.388,10.121,29.577,13.448,50.328,13.448c36.397,0,77.595-10.233,84.457-12.009
		c4.724-1.22,7.56-6.035,6.336-10.759c-1.216-4.72-6.035-7.535-10.75-6.336c-37.026,9.573-101.802,18.849-118.043,3.017
		c-2.052-2-4.552-5.604-2.655-13.776c7.207-31.155,28.026-39.181,54.371-49.34c17.284-6.664,36.879-14.22,52.81-29.957
		c24.655-24.341,41.741-66.159,27.664-94.004c-7.672-15.177-27.207-31.638-76.724-23.772c-58.233,9.237-77.354,40.302-92.715,65.259
		c-12.371,20.09-19.698,30.573-38.586,30.573c-47.259,0-55.535-52.345-55.862-54.556
		C114.672,181.884,110.207,178.491,105.371,179.22z"/>
</g>
<g>
	<path style="fill:#FF5D5D;" d="M36.446,337.655c-2.259,0-4.517-0.862-6.241-2.585c-3.448-3.448-3.448-9.038,0-12.485l31.211-31.21
		c3.444-3.446,9.035-3.446,12.483,0c3.448,3.448,3.448,9.038,0,12.485l-31.211,31.21C40.966,336.793,38.705,337.655,36.446,337.655z
		"/>
	<path style="fill:#FF5D5D;" d="M67.657,337.652c-2.259,0-4.519-0.862-6.241-2.585l-31.211-31.211
		c-3.448-3.448-3.448-9.037,0-12.485c3.444-3.446,9.039-3.446,12.483,0l31.211,31.211c3.448,3.448,3.448,9.037,0,12.485
		C72.177,336.79,69.916,337.652,67.657,337.652z"/>
</g>
<path style="fill:#00D40B;" d="M190.929,337.655c-17.037,0-30.897-13.86-30.897-30.897c0-17.037,13.86-30.897,30.897-30.897
	s30.897,13.86,30.897,30.897C221.825,323.795,207.966,337.655,190.929,337.655z M190.929,293.517
	c-7.302,0-13.241,5.94-13.241,13.241c0,7.302,5.94,13.241,13.241,13.241s13.241-5.94,13.241-13.241
	C204.17,299.457,198.23,293.517,190.929,293.517z"/>
<path style="fill:#FFC504;" d="M432.172,166.898c-2.259,0-4.517-0.862-6.241-2.585l-24.968-24.968
	c-3.448-3.448-3.448-9.037,0-12.485l24.968-24.968c3.444-3.446,9.035-3.446,12.483,0l24.97,24.968
	c1.655,1.655,2.586,3.901,2.586,6.242s-0.931,4.587-2.586,6.242l-24.97,24.968C436.69,166.036,434.431,166.898,432.172,166.898z
	 M419.69,133.102l12.483,12.484l12.485-12.484l-12.485-12.484L419.69,133.102z"/>
</svg>