<?xml version="1.0" encoding="iso-8859-1"?>
<!-- Uploaded to: SVG Repo, www.svgrepo.com, Generator: SVG Repo Mixer Tools -->
<svg version="1.1" id="Layer_1" xmlns="http://www.w3.org/2000/svg" xmlns:xlink="http://www.w3.org/1999/xlink" 
	 viewBox="0 0 512 512" xml:space="preserve">
<rect x="12.8" y="128" style="fill:#BFA779;" width="384" height="320"/>
<rect x="166.4" y="128" style="fill:#7F6F51;" width="76.8" height="166.4"/>
<circle style="fill:#6FB0B6;" cx="396.8" cy="294.4" r="102.4"/>
<polygon style="fill:#FEDEA1;" points="315.733,64 93.867,64 12.8,128 396.8,128 "/>
<rect x="166.4" y="64" style="fill:#BFA779;" width="76.8" height="64"/>
<g>
	<path style="fill:#573A32;" d="M409.6,179.951V128c0-8.559-4.275-16.555-11.401-21.299l-76.8-51.2
		c-4.207-2.807-9.148-4.301-14.199-4.301H102.4c-5.052,0-9.993,1.493-14.199,4.301l-76.8,51.2C4.275,111.445,0,119.441,0,128v307.2
		c0,14.14,11.46,25.6,25.6,25.6H384c14.14,0,25.6-11.46,25.6-25.6v-26.351C467.191,402.475,512,353.69,512,294.4
		S467.191,186.325,409.6,179.951z M256,76.8h51.2l57.6,38.4H256V76.8z M179.2,76.8h51.2v38.4h-51.2V76.8z M179.2,140.8h51.2v140.8
		h-51.2V140.8z M102.4,76.8h51.2v38.4H44.8L102.4,76.8z M384,435.2H25.6V140.8h128v166.4H256V140.8h128v39.151
		c-57.591,6.374-102.4,55.159-102.4,114.449S326.409,402.475,384,408.849V435.2z M396.8,384c-49.408,0-89.6-40.192-89.6-89.6
		s40.192-89.6,89.6-89.6s89.6,40.192,89.6,89.6S446.208,384,396.8,384z"/>
	<path style="fill:#573A32;" d="M409.6,281.6v-41.506c0-7.074-5.726-12.8-12.8-12.8s-12.8,5.726-12.8,12.8V281.6h-41.506
		c-7.074,0-12.8,5.726-12.8,12.8s5.726,12.8,12.8,12.8H384v41.506c0,7.074,5.726,12.8,12.8,12.8c3.533,0,6.733-1.434,9.054-3.746
		c2.313-2.321,3.746-5.521,3.746-9.054V307.2h41.506c3.533,0,6.733-1.434,9.054-3.746c2.321-2.313,3.746-5.513,3.746-9.054
		c0-7.074-5.726-12.8-12.8-12.8H409.6z"/>
</g>
</svg>