<?xml version="1.0" encoding="iso-8859-1"?>
<!-- Uploaded to: SVG Repo, www.svgrepo.com, Generator: SVG Repo Mixer Tools -->
<svg version="1.1" id="Layer_1" xmlns="http://www.w3.org/2000/svg" xmlns:xlink="http://www.w3.org/1999/xlink" 
	 viewBox="0 0 512 512" xml:space="preserve">
<polygon style="fill:#FEA680;" points="250.616,0 239.577,0 320.945,455.736 354.703,455.736 354.703,112.527 "/>
<path style="fill:#FFC1A6;" d="M320.461,135.033l0.484,320.703H45.253V112.527L149.341,0h90.236l80.885,112.527V135.033
	l-95.648,143.473l95.648,143.473V135.033z M222.484,67.516c0-12.423-10.071-22.505-22.505-22.505
	c-12.423,0-22.506,10.082-22.506,22.505c0,12.434,10.082,22.505,22.506,22.505C212.412,90.022,222.484,79.951,222.484,67.516z"/>
<polygon style="fill:#FFF1B1;" points="320.461,135.033 320.461,421.978 286.703,421.978 241.692,278.505 286.703,135.033 "/>
<rect x="78.527" y="135.033" style="fill:#FFFFFF;" width="208.176" height="286.945"/>
<g>
	<circle style="fill:#FE5F1A;" cx="199.489" cy="278.505" r="8.44"/>
	<circle style="fill:#FE5F1A;" cx="238.873" cy="278.505" r="8.44"/>
	<circle style="fill:#FE5F1A;" cx="160.104" cy="278.505" r="8.44"/>
</g>
<path style="fill:#02ACAB;" d="M354.22,286.945V512c62.149,0,112.527-50.379,112.527-112.527S416.369,286.945,354.22,286.945z"/>
<path style="fill:#42C8C6;" d="M354.22,286.945c43.503,0,78.769,50.379,78.769,112.527S397.723,512,354.22,512
	c-62.149,0-112.527-50.379-112.527-112.527S292.071,286.945,354.22,286.945z"/>
<path style="fill:#FFFFFF;" d="M410.483,382.593h-39.385v-39.385c0-9.322-7.557-16.879-16.879-16.879s-16.879,7.557-16.879,16.879
	v39.385h-39.385c-9.322,0-16.879,7.557-16.879,16.879c0,9.322,7.557,16.879,16.879,16.879h39.385v39.385
	c0,9.322,7.557,16.879,16.879,16.879s16.879-7.557,16.879-16.879v-39.385h39.385c9.322,0,16.879-7.557,16.879-16.879
	C427.362,390.151,419.805,382.593,410.483,382.593z"/>
</svg>