<?xml version="1.0" encoding="iso-8859-1"?>
<!-- Uploaded to: SVG Repo, www.svgrepo.com, Generator: SVG Repo Mixer Tools -->
<svg height="800px" width="800px" version="1.1" id="Layer_1" xmlns="http://www.w3.org/2000/svg" xmlns:xlink="http://www.w3.org/1999/xlink" 
	 viewBox="0 0 512 512" xml:space="preserve">
<polygon style="fill:#42C8C6;" points="310.468,8.169 310.468,62.637 245.106,84.425 277.787,8.169 "/>
<polygon style="fill:#81E3E2;" points="43.574,8.169 43.574,62.637 277.787,95.318 277.787,8.169 "/>
<polygon style="fill:#FEDC3D;" points="310.468,62.637 310.468,449.362 277.787,425.352 245.106,243.995 277.787,62.637 "/>
<polygon style="fill:#FFE777;" points="277.787,62.637 277.787,425.352 177.021,351.319 144.34,206.978 177.021,62.637 "/>
<polygon style="fill:#FFF1B1;" points="177.021,62.637 177.021,351.319 43.574,449.362 43.574,62.637 "/>
<path style="fill:#02ACAB;" d="M359.49,285.957V503.83c60.166,0,108.936-48.771,108.936-108.936S419.655,285.957,359.49,285.957z"/>
<path style="fill:#42C8C6;" d="M359.49,285.957c42.115,0,76.255,48.771,76.255,108.936S401.604,503.83,359.49,503.83
	c-60.166,0-108.936-48.771-108.936-108.936S299.324,285.957,359.49,285.957z"/>
<path style="fill:#FFFFFF;" d="M413.958,378.553H375.83v-38.128c0-9.024-7.316-16.34-16.34-16.34s-16.34,7.316-16.34,16.34v38.128
	h-38.128c-9.024,0-16.34,7.316-16.34,16.34s7.316,16.34,16.34,16.34h38.128v38.128c0,9.024,7.316,16.34,16.34,16.34
	s16.34-7.316,16.34-16.34v-38.128h38.128c9.024,0,16.34-7.316,16.34-16.34S422.982,378.553,413.958,378.553z"/>
<path d="M223.322,375.199l-41.464-30.463c-2.879-2.114-6.795-2.114-9.675,0L51.744,433.22V70.809h250.554v191.219
	c0,4.512,3.657,8.17,8.17,8.17s8.17-3.658,8.17-8.17V8.17c0-4.512-3.657-8.17-8.17-8.17H43.574c-4.513,0-8.17,3.658-8.17,8.17
	v441.191c0,3.081,1.732,5.899,4.481,7.289c1.165,0.59,2.429,0.881,3.689,0.881c1.709,0,3.41-0.536,4.838-1.586l128.61-94.488
	l36.627,26.909c3.636,2.672,8.75,1.89,11.421-1.747C227.74,382.983,226.958,377.87,223.322,375.199z M302.298,16.34v38.128H51.744
	V16.34H302.298z"/>
<path d="M168.851,95.319v223.319c0,4.512,3.657,8.17,8.17,8.17c4.513,0,8.17-3.658,8.17-8.17V95.319c0-4.512-3.657-8.17-8.17-8.17
	C172.508,87.149,168.851,90.807,168.851,95.319z"/>
<path d="M359.49,277.787c-64.572,0-117.107,52.533-117.107,117.107S294.918,512,359.49,512s117.107-52.533,117.107-117.107
	S424.062,277.787,359.49,277.787z M359.49,495.66c-55.563,0-100.766-45.203-100.766-100.766s45.203-100.766,100.766-100.766
	s100.766,45.203,100.766,100.766S415.053,495.66,359.49,495.66z"/>
<path d="M413.958,370.383H384v-29.958c0-13.516-10.996-24.511-24.511-24.511s-24.511,10.995-24.511,24.511v29.958h-29.958
	c-13.515,0-24.511,10.995-24.511,24.511s10.996,24.511,24.511,24.511h29.958v29.958c0,13.516,10.996,24.511,24.511,24.511
	S384,462.877,384,449.362v-29.958h29.958c13.515,0,24.511-10.995,24.511-24.511S427.472,370.383,413.958,370.383z M413.958,403.064
	H375.83c-4.513,0-8.17,3.658-8.17,8.17v38.128c0,4.506-3.665,8.17-8.17,8.17s-8.17-3.665-8.17-8.17v-38.128
	c0-4.512-3.657-8.17-8.17-8.17h-38.128c-4.506,0-8.17-3.665-8.17-8.17s3.665-8.17,8.17-8.17h38.128c4.513,0,8.17-3.658,8.17-8.17
	v-38.128c0-4.506,3.665-8.17,8.17-8.17s8.17,3.665,8.17,8.17v38.128c0,4.512,3.657,8.17,8.17,8.17h38.128
	c4.506,0,8.17,3.665,8.17,8.17S418.462,403.064,413.958,403.064z"/>
</svg>