<?xml version="1.0" encoding="iso-8859-1"?>
<!-- Uploaded to: SVG Repo, www.svgrepo.com, Generator: SVG Repo Mixer Tools -->
<svg height="800px" width="800px" version="1.1" id="Layer_1" xmlns="http://www.w3.org/2000/svg" xmlns:xlink="http://www.w3.org/1999/xlink" 
	 viewBox="0 0 512 512" xml:space="preserve">
<path style="fill:#F2F2F2;" d="M406.087,202.778c-20.954,0-40.368,6.585-56.294,17.793c15.162-17.245,24.361-39.861,24.361-64.629
	c0-54.085-43.845-97.929-97.929-97.929s-97.929,43.845-97.929,97.929c0,13.325,2.666,26.026,7.486,37.605
	c-18.369-12.959-40.778-20.574-64.967-20.574C58.5,172.973,7.983,223.49,7.983,285.805c0,60.171,47.102,109.336,106.445,112.649
	v0.183c0,0,288.061,0,291.659,0c54.085,0,97.929-43.845,97.929-97.929S460.172,202.778,406.087,202.778z"/>
<g>
	<path style="fill:#E5E5E5;" d="M325.189,119.202c14.827,0,29.298,1.302,43.27,3.771c-13.536-37.864-49.718-64.961-92.234-64.961
		c-54.085,0-97.929,43.845-97.929,97.929c0,4.383,0.294,8.698,0.853,12.928C217.268,138.081,268.651,119.202,325.189,119.202z"/>
	<path style="fill:#E5E5E5;" d="M145.025,398.636c-20.723-28.123-32.725-61.428-32.725-97.139
		c0-45.806,19.735-87.664,52.316-119.687c-13.47-5.681-28.263-8.837-43.8-8.837C58.5,172.973,7.983,223.49,7.983,285.805
		c0,60.171,47.102,109.336,106.445,112.649v0.183H145.025z"/>
</g>
<g>
	<circle style="fill:#FFD652;" cx="274.096" cy="172.973" r="44.707"/>
	<path style="fill:#FFD652;" d="M340.091,356.058H208.1v-93.672c0-17.637,14.297-31.933,31.933-31.933h68.125
		c17.637,0,31.933,14.297,31.933,31.933V356.058z"/>
</g>
<g>
	<path style="fill:#FB9D46;" d="M252.807,172.973c0-20.638,13.988-38,32.998-43.147c-3.733-1.011-7.657-1.559-11.709-1.559
		c-24.691,0-44.707,20.016-44.707,44.707s20.016,44.707,44.707,44.707c4.052,0,7.976-0.549,11.709-1.559
		C266.795,210.973,252.807,193.611,252.807,172.973z"/>
	<path style="fill:#FB9D46;" d="M263.451,230.453h-23.418c-17.637,0-31.933,14.297-31.933,31.933v93.672h23.418v-93.672
		C231.518,244.75,245.814,230.453,263.451,230.453z"/>
</g>
<circle style="fill:#FF7452;" cx="171.909" cy="373.089" r="80.898"/>
<path style="fill:#E24642;" d="M199.584,426.312c-44.679,0-80.898-36.219-80.898-80.898c0-15.244,4.222-29.499,11.552-41.67
	c-23.504,14.153-39.228,39.91-39.228,69.346c0,44.679,36.219,80.898,80.898,80.898c29.435,0,55.193-15.724,69.346-39.228
	C229.083,422.089,214.828,426.312,199.584,426.312z"/>
<path style="fill:#FFFFFF;" d="M208.1,360.848h-23.95v-21.821c0-6.76-5.481-12.241-12.241-12.241s-12.241,5.481-12.241,12.241
	v21.821h-21.821c-6.76,0-12.241,5.481-12.241,12.241c0,6.76,5.481,12.241,12.241,12.241h21.821v23.95
	c0,6.76,5.481,12.241,12.241,12.241s12.241-5.481,12.241-12.241v-23.95h23.95c6.76,0,12.241-5.481,12.241-12.241
	C220.341,366.329,214.86,360.848,208.1,360.848z"/>
<path d="M406.087,194.794c-11.578,0-22.908,1.852-33.657,5.453c6.347-13.78,9.707-28.876,9.707-44.306
	c0-58.4-47.513-105.913-105.913-105.913S170.312,97.542,170.312,155.942c0,6.954,0.665,13.814,1.985,20.529
	c-15.99-7.552-33.474-11.481-51.482-11.481C54.197,164.99,0,219.187,0,285.805c0,53.973,36.095,101.612,87.899,116.251
	c12.043,34.827,45.141,59.916,84.01,59.916c37.149,0,69.031-22.919,82.294-55.351h77.374c4.41,0,7.983-3.573,7.983-7.983
	c0-4.41-3.573-7.983-7.983-7.983H259.04c1.143-5.68,1.75-11.551,1.75-17.563c0-3.054-0.155-6.073-0.458-9.048h79.759
	c4.41,0,7.983-3.573,7.983-7.983v-93.672c0-22.011-17.906-39.917-39.917-39.917h-15.991c20.179-7.39,34.619-26.789,34.619-49.497
	c0-29.053-23.637-52.69-52.69-52.69s-52.69,23.637-52.69,52.69c0,22.708,14.439,42.106,34.619,49.497h-15.991
	c-22.011,0-39.917,17.906-39.917,39.917v26.437c-8.87-2.977-18.348-4.615-28.208-4.615c-49.009,0-88.881,39.872-88.881,88.881
	c0,3.653,0.248,7.248,0.678,10.787c-40.331-15.255-67.738-54.257-67.738-98.072c0-57.813,47.035-104.848,104.848-104.848
	c21.766,0,42.64,6.609,60.364,19.113c2.906,2.052,6.818,1.931,9.594-0.292c2.776-2.223,3.746-6.015,2.378-9.299
	c-4.56-10.955-6.872-22.576-6.872-34.537c0-49.597,40.35-89.946,89.946-89.946c49.597,0,89.946,40.349,89.946,89.946
	c0,21.868-7.946,42.948-22.374,59.358c-2.671,3.038-2.647,7.594,0.054,10.604c2.702,3.01,7.229,3.527,10.536,1.195
	c15.188-10.688,33.065-16.338,51.7-16.338c49.597,0,89.946,40.349,89.946,89.946s-40.349,89.946-89.946,89.946h-35.127
	c-4.41,0-7.983,3.573-7.983,7.983c0,4.41,3.573,7.983,7.983,7.983h35.127c58.4,0,105.913-47.513,105.913-105.913
	S464.487,194.794,406.087,194.794z M237.372,172.973c0-20.249,16.474-36.723,36.723-36.723s36.723,16.474,36.723,36.723
	s-16.474,36.723-36.723,36.723S237.372,193.222,237.372,172.973z M216.083,262.387c0-13.206,10.743-23.95,23.95-23.95h68.125
	c13.206,0,23.95,10.745,23.95,23.95v85.688h-74.926c-6.515-22.17-21.451-40.758-41.099-52.062V262.387z M171.909,300.175
	c40.205,0,72.915,32.709,72.915,72.915s-32.709,72.915-72.915,72.915s-72.915-32.709-72.915-72.915S131.703,300.175,171.909,300.175
	z"/>
<path d="M137.846,393.314h13.838v15.967c0,11.152,9.072,20.225,20.225,20.225s20.225-9.072,20.225-20.225v-15.967H208.1
	c11.152,0,20.225-9.072,20.225-20.225s-9.072-20.225-20.225-20.225h-15.967v-13.838c0-11.152-9.072-20.225-20.225-20.225
	s-20.225,9.072-20.225,20.225v13.838h-13.838c-11.152,0-20.225,9.072-20.225,20.225S126.694,393.314,137.846,393.314z
	 M137.846,368.832h21.821c4.409,0,7.983-3.573,7.983-7.983v-21.821c0-2.348,1.91-4.258,4.258-4.258c2.348,0,4.258,1.91,4.258,4.258
	v21.821c0,4.41,3.574,7.983,7.983,7.983h23.95c2.348,0,4.258,1.91,4.258,4.258c0,2.348-1.91,4.258-4.258,4.258h-23.95
	c-4.409,0-7.983,3.573-7.983,7.983v23.95c0,2.348-1.91,4.258-4.258,4.258c-2.348,0-4.258-1.91-4.258-4.258v-23.95
	c0-4.41-3.574-7.983-7.983-7.983h-21.821c-2.348,0-4.258-1.91-4.258-4.258C133.588,370.741,135.498,368.832,137.846,368.832z"/>
</svg>