<?xml version="1.0" encoding="iso-8859-1"?>
<!-- Uploaded to: SVG Repo, www.svgrepo.com, Generator: SVG Repo Mixer Tools -->
<svg height="800px" width="800px" version="1.1" id="Layer_1" xmlns="http://www.w3.org/2000/svg" xmlns:xlink="http://www.w3.org/1999/xlink" 
	 viewBox="0 0 512 512" xml:space="preserve">
<path style="fill:#E5E5E5;" d="M406.087,198.786c-11.578,0-22.908,1.852-33.657,5.453c6.347-13.78,9.707-28.876,9.707-44.306
	c0-58.4-47.513-105.913-105.913-105.913s-105.913,47.513-105.913,105.913c0,6.954,0.665,13.814,1.985,20.529
	c-15.99-7.552-33.474-11.481-51.482-11.481C54.197,168.981,0,223.179,0,289.796c0,63.483,49.156,116.08,112.232,120.509
	c0.697,0.199,291.087,0.305,293.855,0.305c58.4,0,105.913-47.513,105.913-105.913S464.487,198.786,406.087,198.786z"/>
<g>
	<path style="fill:#CCCCCC;" d="M332.64,117.356c14.238,0,28.205,1.04,41.824,3.012c-15.707-38.858-53.821-66.347-98.24-66.347
		c-58.4,0-105.913,47.513-105.913,105.913c0,2.716,0.105,5.417,0.308,8.102C215.117,136.312,271.41,117.356,332.64,117.356z"/>
	<path style="fill:#CCCCCC;" d="M71.85,351.534c0-70.089,34.301-132.974,88.638-175.891c-12.64-4.393-26.005-6.662-39.673-6.662
		C54.197,168.981,0,223.179,0,289.796c0,51.466,32.31,95.775,78.151,113.066C74.037,386.343,71.85,369.168,71.85,351.534z"/>
</g>
<path style="fill:#FFD652;" d="M308.158,230.187h-15.991c20.18-7.39,34.619-26.789,34.619-49.497c0-29.053-23.637-52.69-52.69-52.69
	s-52.69,23.637-52.69,52.69c0,22.708,14.439,42.106,34.619,49.497h-15.991c-22.011,0-39.917,17.906-39.917,39.917v93.672
	c0,4.41,3.574,7.983,7.983,7.983h131.992c4.41,0,7.983-3.573,7.983-7.983v-93.672C348.075,248.093,330.169,230.187,308.158,230.187z
	"/>
<path style="fill:#FB9D46;" d="M225.131,363.775v-93.672c0-22.011,17.906-39.917,39.917-39.917h15.991
	c-20.18-7.39-34.619-26.789-34.619-49.497c0-24.743,17.149-45.547,40.183-51.178c-4.012-0.98-8.197-1.513-12.507-1.513
	c-29.053,0-52.69,23.637-52.69,52.69c0,22.708,14.439,42.106,34.619,49.497h-15.991c-22.011,0-39.917,17.906-39.917,39.917v93.672
	c0,4.41,3.574,7.983,7.983,7.983h25.015C228.705,371.759,225.131,368.185,225.131,363.775z"/>
<circle style="fill:#FF7452;" cx="171.909" cy="377.081" r="80.898"/>
<path style="fill:#E24642;" d="M199.584,430.304c-44.679,0-80.898-36.219-80.898-80.898c0-15.244,4.222-29.499,11.552-41.67
	c-23.504,14.153-39.228,39.91-39.228,69.346c0,44.679,36.219,80.898,80.898,80.898c29.435,0,55.193-15.724,69.346-39.228
	C229.083,426.081,214.828,430.304,199.584,430.304z"/>
<path style="fill:#FFFFFF;" d="M208.1,364.84h-23.95v-21.821c0-6.76-5.481-12.241-12.241-12.241s-12.241,5.481-12.241,12.241v21.821
	h-21.821c-6.76,0-12.241,5.481-12.241,12.241c0,6.76,5.481,12.241,12.241,12.241h21.821v23.95c0,6.76,5.481,12.241,12.241,12.241
	s12.241-5.481,12.241-12.241v-23.95h23.95c6.76,0,12.241-5.481,12.241-12.241C220.341,370.321,214.86,364.84,208.1,364.84z"/>
</svg>